<?xml version="1.0" standalone="no"?>
<!DOCTYPE svg PUBLIC "-//W3C//DTD SVG 20010904//EN"
 "http://www.w3.org/TR/2001/REC-SVG-20010904/DTD/svg10.dtd">
<svg version="1.0" xmlns="http://www.w3.org/2000/svg"
 width="300.000000pt" height="300.000000pt" viewBox="0 0 300.000000 300.000000"
 preserveAspectRatio="xMidYMid meet">
<metadata>
Created by potrace 1.10, written by Peter Selinger 2001-2011
</metadata>
<g transform="translate(0.000000,300.000000) scale(0.100000,-0.100000)"
fill="#000000" stroke="none">
<path d="M1483 2678 c-29 -11 -53 -24 -53 -29 0 -10 93 -59 113 -59 10 0 14
15 14 55 0 62 1 61 -74 33z"/>
<path d="M1187 2664 c-13 -14 -7 -52 10 -58 25 -10 51 20 37 42 -12 19 -36 27
-47 16z"/>
<path d="M1605 2659 c-8 -12 14 -31 30 -26 6 2 10 10 10 18 0 17 -31 24 -40 8z"/>
<path d="M1693 2653 c-23 -8 -14 -32 17 -48 56 -29 69 -99 24 -134 -24 -19
-40 -21 -176 -21 -137 0 -149 -1 -146 -17 3 -16 20 -18 153 -21 125 -3 155 0
182 14 64 34 80 128 31 181 -28 30 -69 52 -85 46z"/>
<path d="M1320 2636 c-10 -13 -10 -19 0 -32 12 -14 15 -14 29 0 14 15 14 17 0
32 -14 14 -17 14 -29 0z"/>
<path d="M1615 2569 c-4 -5 -4 -21 -1 -35 5 -17 13 -24 31 -24 29 0 47 27 34
52 -11 20 -54 24 -64 7z"/>
<path d="M1867 2573 c-18 -17 -2 -32 52 -53 l60 -22 -53 -52 c-62 -61 -96
-138 -96 -221 l0 -55 -229 0 c-191 0 -231 2 -241 15 -22 26 5 45 64 45 60 0
76 12 76 56 0 42 -41 76 -84 72 -39 -4 -51 -38 -14 -38 31 0 63 -23 54 -38 -4
-7 -29 -12 -55 -12 -37 0 -52 -5 -69 -23 -30 -32 -28 -71 4 -96 25 -20 39 -21
264 -21 l238 0 21 -42 c34 -72 78 -115 149 -150 59 -29 76 -33 147 -33 96 1
151 22 219 85 101 93 129 232 71 358 -65 145 -236 225 -384 181 -33 -10 -43
-8 -98 20 -60 31 -84 37 -96 24z m413 -109 c134 -73 189 -233 124 -362 -103
-208 -396 -207 -506 1 -32 60 -32 174 1 237 41 79 103 129 186 151 55 15 140
3 195 -27z"/>
<path d="M2070 2451 c-189 -67 -217 -330 -46 -435 173 -107 400 39 371 238
-23 153 -180 248 -325 197z m141 -32 c50 -17 97 -55 118 -97 76 -148 -17 -307
-179 -306 -62 1 -90 12 -138 58 -43 40 -62 86 -62 149 0 141 131 239 261 196z"/>
<path d="M2110 2396 c-6 -8 -21 -16 -33 -18 -19 -3 -22 -10 -25 -51 -2 -31
-10 -55 -23 -68 -24 -24 -24 -34 0 -58 14 -14 21 -37 23 -73 2 -43 7 -53 23
-57 11 -2 26 -12 33 -22 17 -24 56 -24 79 0 10 10 28 22 41 25 46 15 67 100
36 145 -12 17 -13 26 -5 34 20 20 13 73 -15 101 -15 14 -32 26 -39 26 -7 0
-15 7 -19 15 -7 19 -60 20 -76 1z m50 -30 c0 -7 13 -16 29 -19 44 -9 57 -62
25 -98 -12 -14 -12 -18 6 -34 40 -36 19 -107 -35 -117 -11 -2 -20 -10 -20 -18
0 -8 -8 -16 -17 -18 -13 -2 -18 3 -18 17 0 16 -6 21 -25 21 -24 0 -25 3 -25
54 0 39 -4 55 -15 60 -8 3 -15 10 -15 16 0 5 7 10 15 10 12 0 15 13 15 55 0
52 1 55 25 55 16 0 25 6 25 15 0 8 7 15 15 15 8 0 15 -6 15 -14z"/>
<path d="M2120 2279 c0 -38 2 -40 26 -37 15 2 33 13 41 24 12 19 12 24 -2 38
-9 9 -27 16 -41 16 -21 0 -24 -4 -24 -41z"/>
<path d="M2120 2170 c0 -39 1 -40 35 -40 30 0 55 19 55 44 0 15 -35 36 -61 36
-27 0 -29 -2 -29 -40z"/>
<path d="M925 2540 c-17 -27 17 -30 321 -30 307 0 314 0 314 20 0 20 -7 20
-314 20 -199 0 -317 -4 -321 -10z"/>
<path d="M1310 2425 c-18 -21 -5 -47 22 -43 26 3 37 36 16 49 -18 12 -24 11
-38 -6z"/>
<path d="M602 2365 c-70 -33 -129 -81 -159 -132 -22 -39 -23 -44 -9 -70 22
-44 110 -121 169 -148 47 -23 65 -25 194 -25 143 0 143 0 174 28 31 28 33 28
51 10 34 -34 143 -21 175 21 18 23 17 26 -24 65 -30 28 -35 38 -25 48 15 15
16 60 0 76 -9 9 -4 20 25 50 20 21 37 43 37 49 0 28 -52 53 -112 53 -51 0 -62
-4 -83 -26 -14 -15 -25 -22 -25 -16 0 6 -13 18 -30 27 -22 11 -63 15 -167 15
-125 0 -143 -2 -191 -25z m342 -36 c25 -20 26 -23 26 -135 0 -109 -1 -116 -25
-139 -23 -24 -31 -25 -133 -25 -60 0 -124 3 -142 6 l-32 7 6 132 c3 73 3 135
-1 138 -3 4 -15 1 -26 -4 -19 -11 -20 -18 -14 -130 3 -66 1 -119 -4 -119 -13
0 -129 116 -129 129 0 17 77 98 116 122 53 32 80 37 210 38 108 1 124 -1 148
-20z m210 14 c3 -4 -8 -22 -26 -40 -26 -27 -39 -33 -75 -33 -51 0 -54 12 -16
52 21 22 36 28 68 28 23 0 45 -3 49 -7z m-46 -140 c3 -20 -1 -23 -31 -23 -20
0 -42 -3 -51 -6 -13 -5 -16 1 -16 25 0 32 0 32 48 29 40 -3 47 -6 50 -25z m16
-100 c39 -43 33 -53 -27 -53 -42 0 -87 37 -87 71 0 15 8 19 40 19 33 0 45 -6
74 -37z"/>
<path d="M721 2234 c-28 -35 -26 -69 4 -99 45 -46 118 -23 131 40 14 74 -88
118 -135 59z m94 -34 c4 -12 1 -27 -5 -35 -27 -33 -78 -5 -65 35 4 14 15 20
35 20 20 0 31 -6 35 -20z"/>
<path d="M878 2167 c-4 -18 0 -22 19 -21 27 1 44 14 19 14 -12 0 -16 5 -12 15
3 9 0 15 -8 15 -8 0 -16 -10 -18 -23z"/>
<path d="M1693 2354 c-4 -10 1 -22 10 -29 22 -16 22 -31 0 -43 -19 -11 -11
-42 11 -42 17 0 56 46 56 67 0 16 -44 63 -60 63 -6 0 -13 -7 -17 -16z"/>
<path d="M1600 2314 c-15 -17 -4 -64 16 -71 15 -5 25 35 17 65 -6 26 -16 28
-33 6z"/>
<path d="M2554 2185 c-8 -21 2 -45 19 -45 8 0 20 7 27 15 10 12 10 18 0 30 -7
8 -19 15 -27 15 -7 0 -16 -7 -19 -15z"/>
<path d="M1350 2074 c-180 -38 -361 -180 -440 -345 -125 -261 -76 -556 126
-755 194 -193 489 -239 744 -117 111 53 233 177 288 293 57 121 76 211 69 324
-5 77 -24 162 -51 227 -6 14 16 16 226 13 128 -1 250 2 270 7 54 14 88 59 88
117 0 55 -12 77 -34 69 -12 -5 -14 -16 -10 -51 6 -39 3 -48 -19 -70 l-26 -26
-263 0 -263 1 -34 50 c-53 78 -155 165 -245 210 -135 66 -282 84 -426 53z
m246 -37 c1 -1 4 -11 8 -22 6 -20 3 -21 -86 -17 -272 12 -506 -161 -573 -423
-19 -77 -19 -201 1 -279 50 -194 211 -351 414 -402 86 -22 222 -15 308 15 179
62 321 212 367 386 17 67 19 208 4 275 -34 152 -154 297 -305 372 -72 35 -89
48 -90 66 -1 28 12 25 121 -31 236 -122 374 -398 320 -644 -54 -249 -235 -436
-472 -489 -146 -32 -321 -1 -448 81 -60 38 -161 144 -198 207 -84 145 -106
340 -53 493 37 106 82 178 158 251 96 92 198 143 328 164 43 7 190 4 196 -3z
m19 -92 c142 -37 282 -150 344 -278 170 -351 -81 -746 -475 -747 -382 0 -628
397 -462 748 59 127 196 238 339 276 72 19 181 20 254 1z"/>
<path d="M1298 1885 c-3 -4 -3 -15 -1 -26 7 -24 28 -20 28 6 0 18 -16 30 -27
20z"/>
<path d="M1644 1875 c-4 -9 -2 -21 5 -28 13 -13 18 -9 23 17 4 24 -20 33 -28
11z"/>
<path d="M1365 1864 c-8 -9 -15 -33 -15 -55 0 -39 0 -39 -38 -39 -51 0 -72
-18 -79 -67 -8 -59 3 -92 32 -99 l25 -6 0 -149 0 -148 -27 -13 c-21 -10 -29
-22 -31 -47 -7 -74 19 -111 79 -111 39 0 39 0 39 -40 0 -56 29 -84 78 -76 47
8 60 8 100 0 22 -4 40 -1 57 10 21 14 25 24 25 64 0 47 1 49 44 69 34 17 49
33 70 74 36 74 31 163 -13 203 -17 16 -17 18 6 64 20 38 24 57 19 96 -7 61
-43 118 -90 140 -35 16 -36 19 -36 71 0 69 -8 73 -133 74 -73 0 -100 -4 -112
-15z m93 -87 c3 -53 5 -58 24 -55 18 3 21 10 22 58 1 55 1 55 34 58 l32 3 0
-65 c0 -61 2 -66 21 -66 12 0 39 -17 60 -39 34 -34 39 -44 39 -85 0 -44 -22
-106 -38 -106 -4 0 -13 -4 -21 -9 -11 -7 -5 -18 29 -50 l42 -40 -4 -67 c-4
-60 -7 -69 -37 -96 -17 -16 -45 -31 -62 -35 -28 -5 -29 -7 -29 -63 0 -49 -3
-58 -20 -63 -36 -9 -54 15 -48 66 5 44 4 47 -18 47 -22 0 -24 -4 -24 -55 l0
-55 -36 0 -36 0 4 55 3 54 -55 3 -55 3 -3 38 c-3 34 -1 37 22 37 l26 0 0 199
0 198 -25 -5 c-24 -4 -25 -2 -25 43 l0 46 57 -2 57 -3 -3 47 c-3 57 3 69 37
65 25 -3 27 -7 30 -61z"/>
<path d="M1410 1568 l0 -78 65 0 c35 0 75 5 89 11 45 21 54 100 14 126 -7 4
-48 10 -91 13 l-77 5 0 -77z m134 26 c21 -8 20 -41 -1 -52 -10 -5 -34 -8 -53
-8 -32 1 -35 4 -38 34 -3 31 -2 32 37 32 21 0 46 -3 55 -6z"/>
<path d="M1410 1330 l0 -80 59 0 c102 0 141 24 141 89 0 49 -38 71 -126 71
l-74 0 0 -80z m148 24 c13 -4 17 -40 4 -48 -4 -2 -30 -6 -57 -7 -46 -3 -50 -1
-53 20 -6 41 3 50 50 44 24 -2 49 -6 56 -9z"/>
<path d="M1235 1830 c-3 -6 -3 -19 0 -30 5 -16 10 -18 26 -10 16 9 17 14 6 30
-13 22 -23 25 -32 10z"/>
<path d="M1701 1811 c-8 -15 -7 -20 6 -26 18 -6 47 21 37 36 -9 15 -33 10 -43
-10z"/>
<path d="M1152 1768 c-16 -16 -15 -38 2 -38 7 0 19 6 25 14 16 19 -10 41 -27
24z"/>
<path d="M1797 1763 c-10 -9 13 -33 30 -33 10 0 13 6 9 16 -3 9 -6 18 -6 20 0
7 -26 5 -33 -3z"/>
<path d="M1083 1694 c-8 -22 15 -43 27 -24 5 8 10 21 10 28 0 17 -30 15 -37
-4z"/>
<path d="M1860 1691 c0 -24 11 -32 28 -22 16 10 5 41 -14 41 -8 0 -14 -9 -14
-19z"/>
<path d="M1110 1642 c0 -4 5 -13 11 -19 8 -8 7 -28 -5 -75 -20 -79 -20 -128
-2 -198 8 -30 13 -57 10 -59 -2 -2 -21 -15 -41 -28 -21 -14 -29 -21 -18 -17
11 4 29 7 41 8 11 1 30 8 43 16 22 15 22 15 5 80 -18 73 -15 158 10 227 l15
43 -29 15 c-33 17 -40 18 -40 7z"/>
<path d="M1841 1632 c-22 -17 -22 -18 -7 -77 20 -76 20 -147 0 -215 -16 -53
-16 -55 6 -72 12 -10 34 -18 49 -18 25 1 25 1 7 15 -10 8 -23 16 -28 17 -5 2
-2 30 7 63 19 75 19 147 -1 214 -8 28 -12 61 -9 71 8 25 3 25 -24 2z"/>
<path d="M1017 1611 c-3 -12 -1 -21 3 -21 5 0 15 -3 23 -6 9 -3 16 3 20 15 3
12 1 21 -3 21 -5 0 -15 3 -23 6 -9 3 -16 -3 -20 -15z"/>
<path d="M1922 1603 c4 -20 18 -26 37 -14 18 12 5 31 -20 31 -14 0 -19 -6 -17
-17z"/>
<path d="M1178 1465 c-10 -22 -9 -29 9 -46 25 -25 58 -18 66 13 15 54 -52 83
-75 33z m60 -17 c-2 -15 -10 -23 -23 -23 -13 0 -21 8 -23 23 -3 18 1 22 23 22
22 0 26 -4 23 -22z"/>
<path d="M1753 1483 c-20 -8 -15 -57 7 -70 38 -24 72 15 50 57 -10 19 -31 24
-57 13z m45 -35 c-2 -15 -10 -23 -23 -23 -13 0 -21 8 -23 23 -3 18 1 22 23 22
22 0 26 -4 23 -22z"/>
<path d="M997 1473 c-16 -15 -6 -33 18 -33 18 0 25 5 25 20 0 20 -28 28 -43
13z"/>
<path d="M1952 1458 c2 -17 9 -22 23 -20 26 5 29 8 22 27 -4 8 -16 15 -27 15
-16 0 -21 -5 -18 -22z"/>
<path d="M1002 1333 c2 -10 12 -18 23 -18 11 0 21 8 23 18 3 13 -3 17 -23 17
-20 0 -26 -4 -23 -17z"/>
<path d="M1937 1343 c-16 -15 -6 -33 18 -33 28 0 34 24 9 34 -19 7 -19 7 -27
-1z"/>
<path d="M1084 1209 c-8 -14 21 -43 35 -35 8 5 8 13 1 27 -12 21 -25 25 -36 8z"/>
<path d="M1863 1200 c-9 -13 -9 -21 -2 -26 14 -8 43 21 35 35 -10 16 -20 14
-33 -9z"/>
<path d="M1142 1134 c2 -11 11 -20 22 -22 13 -3 17 1 14 14 -2 11 -11 20 -22
22 -13 3 -17 -1 -14 -14z"/>
<path d="M1797 1136 c-9 -22 18 -40 33 -22 6 9 9 20 5 26 -9 15 -32 12 -38 -4z"/>
<path d="M1226 1073 c-8 -21 8 -38 28 -30 22 8 20 24 -3 36 -15 8 -20 7 -25
-6z"/>
<path d="M1717 1077 c-11 -8 -14 -17 -8 -26 11 -17 41 -7 41 13 0 21 -15 27
-33 13z"/>
<path d="M1296 1014 c-10 -25 -7 -34 9 -34 8 0 15 4 15 9 0 5 3 16 6 25 4 10
1 16 -9 16 -8 0 -18 -7 -21 -16z"/>
<path d="M1640 1010 c0 -11 7 -23 15 -27 21 -7 25 -2 18 25 -7 28 -33 29 -33
2z"/>
<path d="M400 2004 c-52 -107 -19 -132 37 -28 37 70 41 94 14 94 -15 0 -29
-18 -51 -66z"/>
<path d="M2456 2011 c-11 -18 6 -42 28 -39 29 4 29 42 -1 46 -11 2 -24 -1 -27
-7z"/>
<path d="M2553 1995 c-3 -9 -4 -17 -2 -18 2 -1 16 -13 31 -26 23 -20 30 -22
43 -11 14 12 13 16 -11 42 -31 31 -52 36 -61 13z"/>
<path d="M980 1975 c-17 -20 -5 -45 20 -45 11 0 23 7 26 15 6 15 -11 45 -26
45 -4 0 -13 -7 -20 -15z"/>
<path d="M599 1953 c-11 -13 -11 -17 -1 -20 6 -3 12 -13 12 -23 0 -10 -6 -20
-12 -23 -9 -3 -7 -11 7 -26 l21 -21 24 22 c21 20 22 23 7 26 -20 4 -23 38 -5
44 9 3 8 9 -4 21 -21 21 -32 21 -49 0z"/>
<path d="M732 1928 c-18 -18 -15 -36 7 -48 28 -14 55 13 41 41 -12 22 -30 25
-48 7z"/>
<path d="M2505 1915 c-14 -13 -25 -31 -25 -40 0 -23 45 -65 70 -65 27 0 60 35
60 64 0 25 -41 66 -67 66 -8 0 -25 -11 -38 -25z m62 -31 c9 -23 -13 -40 -32
-24 -12 10 -13 16 -4 26 15 18 28 18 36 -2z"/>
<path d="M477 1917 c-3 -8 1 -23 8 -34 11 -14 18 -16 32 -7 28 17 23 48 -8 52
-16 2 -29 -3 -32 -11z"/>
<path d="M367 1884 c-4 -4 -7 -20 -7 -36 0 -25 4 -29 23 -26 17 2 22 10 22 33
0 29 -22 45 -38 29z"/>
<path d="M2194 1865 c-4 -9 -2 -21 3 -26 14 -14 45 1 41 20 -4 22 -37 26 -44
6z"/>
<path d="M2353 1864 c-4 -11 1 -22 12 -31 16 -11 21 -11 33 1 8 8 12 22 9 30
-8 21 -46 21 -54 0z"/>
<path d="M2067 1847 c-8 -21 8 -39 29 -35 27 5 25 42 -2 46 -12 2 -24 -3 -27
-11z"/>
<path d="M703 1814 c-12 -31 14 -41 99 -36 46 2 86 7 90 11 19 17 -15 29 -95
34 -70 4 -90 2 -94 -9z"/>
<path d="M382 1784 c-73 -36 -122 -106 -137 -191 -25 -154 137 -309 286 -273
68 17 128 64 163 130 111 206 -105 437 -312 334z m140 -31 c27 -24 23 -28 -32
-28 -27 0 -50 2 -50 4 0 3 7 13 17 23 20 22 41 23 65 1z m-121 -22 c-10 -18
-81 -66 -81 -55 0 9 73 74 82 74 5 0 4 -8 -1 -19z m214 -12 c19 -17 35 -36 35
-42 0 -5 -8 -3 -17 5 -10 8 -25 18 -34 21 -14 4 -35 47 -23 47 2 0 19 -14 39
-31z m-69 -37 c15 -10 28 -102 15 -102 -14 0 -14 -33 -2 -45 6 -6 7 -29 4 -52
-5 -39 -9 -43 -39 -49 -19 -3 -49 -3 -68 0 -30 6 -34 10 -39 49 -3 23 -2 46 4
52 13 13 11 45 -2 45 -15 0 -2 92 14 102 7 4 32 8 57 8 25 0 50 -4 56 -8z
m-171 -60 c-5 -32 -11 -41 -30 -45 -32 -5 -37 1 -23 27 14 27 50 67 56 62 2
-3 1 -22 -3 -44z m272 -1 c27 -40 24 -49 -14 -44 -25 4 -28 9 -30 45 -3 47 11
47 44 -1z m-272 -117 c3 -20 4 -38 1 -41 -8 -9 -36 17 -52 49 -14 28 -14 28
15 28 25 0 30 -4 36 -36z m281 8 c-8 -15 -23 -36 -35 -46 -24 -21 -26 -14 -15
43 6 26 11 31 36 31 28 0 28 -1 14 -28z m-284 -91 c27 -14 46 -41 28 -41 -5 0
-24 14 -42 31 -34 31 -32 33 14 10z m243 -11 c-31 -33 -48 -39 -39 -15 5 13
48 43 63 45 3 0 -8 -13 -24 -30z m-75 -22 c0 -4 -11 -15 -25 -24 -23 -15 -27
-15 -50 0 -37 24 -31 32 25 32 28 0 50 -3 50 -8z"/>
<path d="M477 1554 c-14 -14 -7 -35 11 -32 9 2 17 10 17 17 0 16 -18 25 -28
15z"/>
<path d="M2674 1745 c-8 -21 2 -45 19 -45 20 0 40 27 33 45 -7 19 -45 20 -52
0z"/>
<path d="M751 1646 c-15 -18 -3 -46 19 -46 10 0 21 7 24 16 6 16 -9 44 -24 44
-4 0 -13 -6 -19 -14z"/>
<path d="M2274 1635 c-8 -21 2 -45 19 -45 20 0 40 27 33 45 -7 19 -45 20 -52
0z"/>
<path d="M2686 1614 c-7 -19 10 -44 29 -44 19 0 36 25 29 44 -3 9 -16 16 -29
16 -13 0 -26 -7 -29 -16z"/>
<path d="M2439 1594 c-63 -19 -141 -91 -185 -170 l-36 -64 36 -63 c69 -123
165 -184 274 -174 66 5 105 23 157 68 38 34 105 144 105 174 0 28 -66 129
-114 173 -28 26 -64 46 -97 56 -63 19 -80 19 -140 0z m51 -133 l0 -110 -42 18
c-24 10 -51 21 -60 24 -16 6 -16 9 -1 53 13 39 80 124 98 124 3 0 5 -49 5
-109z m93 65 c19 -19 42 -55 50 -81 16 -45 16 -46 -6 -54 -12 -5 -39 -16 -59
-24 l-38 -16 0 105 c0 60 4 104 10 104 5 0 25 -15 43 -34z m-225 -52 c-32 -54
-32 -162 0 -222 13 -24 21 -46 18 -49 -6 -7 -63 73 -89 123 l-20 42 33 53 c33
56 71 102 77 95 2 -2 -6 -21 -19 -42z m351 -41 l40 -66 -29 -56 c-29 -55 -63
-101 -74 -101 -4 0 2 17 13 39 38 73 36 147 -4 245 -17 40 15 4 54 -61z m-221
-197 c2 -42 -1 -76 -6 -76 -22 0 -82 82 -96 131 -9 29 -16 56 -16 60 0 4 26
-3 58 -16 l57 -23 3 -76z m148 60 c-16 -56 -52 -108 -88 -127 -18 -10 -19 -7
-16 66 l3 77 55 23 c30 12 57 21 58 19 2 -1 -3 -27 -12 -58z"/>
<path d="M2203 1513 c-18 -7 -16 -42 3 -50 8 -3 23 1 31 10 13 13 14 19 3 31
-13 17 -17 18 -37 9z"/>
<path d="M690 1365 c-20 -25 -8 -50 25 -50 24 0 31 5 33 24 6 37 -34 55 -58
26z"/>
<path d="M369 1288 c-5 -74 19 -158 46 -158 22 0 29 24 15 50 -7 13 -15 43
-19 69 -4 32 -11 47 -24 49 -9 2 -17 -2 -18 -10z"/>
<path d="M635 1252 c-179 -2 -193 -5 -175 -27 19 -23 338 -22 347 1 3 8 2 18
-3 22 -5 4 -81 6 -169 4z"/>
<path d="M2201 1207 c-6 -8 -8 -33 -4 -65 5 -42 9 -52 24 -52 15 0 19 7 19 33
0 18 5 38 11 44 8 8 7 17 -3 32 -15 24 -31 27 -47 8z"/>
<path d="M558 1167 c-94 -31 -174 -121 -186 -210 -5 -37 -3 -40 10 -30 8 7 18
10 21 7 3 -3 10 11 16 33 31 115 158 193 267 163 67 -19 138 -89 155 -152 7
-26 17 -44 21 -42 5 3 16 0 25 -8 15 -12 15 -9 9 27 -23 122 -123 213 -244
221 -31 2 -74 -2 -94 -9z"/>
<path d="M593 1113 c-8 -3 -13 -24 -13 -54 l0 -49 -70 -46 c-38 -26 -70 -50
-70 -54 0 -9 103 -88 125 -96 11 -4 15 -21 15 -55 0 -40 3 -49 18 -49 14 0 17
10 18 56 l2 55 -66 44 c-64 43 -65 44 -40 55 21 10 31 8 73 -19 l48 -31 39 22
c22 12 44 28 49 35 8 9 16 9 35 1 13 -6 24 -14 23 -17 0 -3 -28 -24 -62 -47
l-62 -41 -3 -57 c-3 -51 -1 -56 18 -56 17 0 20 6 20 48 1 47 1 47 70 95 39 26
70 51 70 56 0 5 -31 30 -70 55 l-70 46 0 49 c0 35 -4 51 -16 55 -18 7 -63 7
-81 -1z m59 -72 c-3 -38 0 -47 24 -66 l27 -21 -34 -21 c-34 -22 -42 -21 -83
10 -19 14 -19 15 7 32 23 15 27 24 27 67 0 42 3 49 18 46 14 -3 16 -12 14 -47z"/>
<path d="M2577 1104 c-4 -4 -7 -25 -7 -46 0 -32 3 -38 21 -38 18 0 20 5 17 42
-3 39 -16 57 -31 42z"/>
<path d="M2407 1052 c-18 -20 -22 -42 -8 -42 5 0 11 -9 14 -20 6 -22 37 -18
37 5 0 7 7 16 16 19 15 6 14 10 -6 31 -28 30 -32 30 -53 7z"/>
<path d="M2083 980 c-64 -32 -101 -72 -133 -142 l-19 -43 -63 0 c-56 0 -63 -2
-63 -20 0 -18 8 -20 63 -23 61 -3 62 -4 62 -31 0 -37 24 -105 50 -141 11 -15
20 -30 20 -32 0 -1 -55 -3 -122 -3 -116 0 -123 -1 -123 -20 0 -19 7 -20 150
-22 120 -1 158 -5 190 -19 27 -12 65 -18 115 -19 65 0 82 4 129 30 167 93 201
303 69 432 -92 90 -213 109 -325 53z m225 -36 c99 -49 156 -158 132 -252 -24
-96 -109 -172 -208 -188 -100 -16 -217 65 -247 171 -56 190 145 358 323 269z"/>
<path d="M2160 940 c0 -5 -15 -16 -32 -23 -39 -17 -74 -52 -60 -61 20 -12 -10
-65 -38 -68 -23 -3 -25 -7 -25 -48 0 -39 3 -45 23 -48 25 -4 51 -47 44 -75 -4
-20 34 -56 60 -57 10 0 22 -9 28 -20 13 -24 67 -27 95 -5 11 8 36 25 55 38 23
15 35 31 36 48 1 13 2 30 3 37 0 7 17 20 36 28 30 12 35 19 35 47 0 37 -15 57
-42 57 -23 0 -40 33 -32 63 4 19 -1 29 -22 46 -15 11 -35 21 -45 21 -11 0 -19
7 -19 15 0 11 -12 15 -50 15 -27 0 -50 -4 -50 -10z m77 -36 c13 -14 30 -23 38
-21 16 7 39 -18 31 -32 -3 -5 1 -22 9 -37 8 -16 15 -35 15 -41 0 -7 11 -13 25
-13 20 0 25 -5 25 -25 0 -19 -5 -25 -23 -25 -22 0 -49 -42 -51 -80 -2 -25 -14
-37 -46 -43 -18 -4 -30 -13 -30 -22 0 -8 -9 -15 -20 -15 -11 0 -20 7 -20 15 0
8 -12 18 -27 21 -51 12 -66 24 -52 40 9 11 9 18 -3 32 -9 9 -19 27 -22 40 -5
15 -15 22 -32 22 -19 0 -25 5 -22 18 2 9 12 18 23 20 22 3 68 89 53 98 -16 10
2 22 41 29 27 4 41 13 44 26 7 25 15 24 44 -7z"/>
<path d="M2168 820 c-16 -17 -28 -35 -28 -41 0 -24 22 -48 55 -59 52 -17 47
-43 -7 -38 -33 2 -43 0 -43 -12 0 -8 10 -16 23 -18 12 -2 22 -8 22 -13 0 -5 7
-9 15 -9 8 0 15 3 15 8 0 4 10 12 23 17 25 12 34 49 16 71 -7 8 -28 22 -47 29
-43 18 -37 40 11 40 41 0 50 15 18 30 -11 5 -21 13 -21 17 0 17 -27 6 -52 -22z"/>
<path d="M2567 983 c-2 -4 -7 -21 -11 -38 -4 -16 -19 -47 -32 -69 -19 -28 -23
-41 -15 -49 18 -18 43 3 69 55 29 57 33 101 10 106 -9 2 -18 -1 -21 -5z"/>
<path d="M370 882 c2 -77 64 -167 142 -206 60 -30 165 -36 222 -12 79 33 149
122 162 205 6 40 6 41 -17 33 -15 -6 -26 -20 -30 -38 -27 -134 -180 -212 -305
-155 -52 24 -108 90 -124 146 -14 52 -50 71 -50 27z"/>
<path d="M923 804 c-10 -28 13 -35 103 -32 81 3 89 5 89 23 0 18 -7 20 -93 22
-76 2 -94 0 -99 -13z"/>
<path d="M1144 809 c-3 -6 0 -17 8 -25 13 -13 16 -13 27 0 7 8 10 20 6 26 -8
13 -32 13 -41 -1z"/>
<path d="M1714 786 c-15 -12 -17 -18 -8 -33 15 -24 58 -24 62 0 4 18 -14 47
-27 47 -4 0 -16 -6 -27 -14z"/>
<path d="M1537 749 c-20 -11 -22 -30 -5 -47 14 -14 48 2 48 22 0 22 -23 36
-43 25z"/>
<path d="M927 682 c-10 -10 -17 -28 -17 -40 0 -18 -6 -22 -32 -23 -44 -1 -119
-56 -130 -94 -17 -59 12 -135 51 -135 9 0 22 -9 29 -20 8 -14 23 -20 47 -20
28 0 35 -4 35 -20 0 -11 9 -29 20 -40 19 -19 33 -20 265 -20 l244 0 121 100
c66 55 120 107 120 114 0 8 -11 23 -24 33 -13 10 -65 55 -117 101 l-93 82
-252 0 c-230 0 -252 -1 -267 -18z m73 -197 c0 -100 -4 -175 -9 -175 -39 0 -41
8 -41 174 0 90 3 166 7 169 3 4 15 7 25 7 17 0 18 -12 18 -175z m520 90 c52
-46 95 -88 95 -93 0 -15 -174 -153 -203 -162 -16 -4 -106 -8 -200 -9 -167 -2
-172 -1 -172 19 0 19 5 20 183 20 205 0 229 7 260 73 21 44 21 80 1 123 -34
71 -45 74 -255 74 -182 0 -189 1 -189 20 0 19 7 20 193 20 l192 0 95 -85z
m-610 -90 c0 -95 0 -95 -25 -95 -25 0 -25 0 -25 95 0 95 0 95 25 95 25 0 25 0
25 -95z m518 68 c11 -16 22 -38 26 -50 9 -28 -16 -88 -42 -102 -13 -7 -90 -11
-196 -11 l-176 0 0 95 0 95 184 0 185 0 19 -27z m-608 -64 c0 -44 -3 -60 -12
-57 -26 9 -18 118 8 118 2 0 4 -27 4 -61z"/>
<path d="M1343 526 c-24 -21 -43 -43 -43 -50 0 -11 73 -76 84 -76 3 0 6 11 6
24 0 13 7 26 15 30 19 7 20 46 1 46 -9 0 -16 12 -18 32 l-3 33 -42 -39z"/>
<path d="M1167 522 c-36 -40 -9 -102 44 -102 39 0 62 23 62 60 0 55 -70 82
-106 42z m63 -28 c11 -12 11 -18 -2 -31 -19 -18 -38 -10 -38 16 0 33 20 40 40
15z"/>
<path d="M1696 681 c-11 -12 -14 -21 -7 -26 6 -3 11 -17 11 -30 0 -13 4 -26 9
-29 13 -8 34 21 28 38 -3 8 1 17 10 20 14 6 14 9 -2 26 -22 25 -28 25 -49 1z"/>
<path d="M1838 686 c-20 -14 -24 -36 -8 -36 6 0 10 -7 10 -15 0 -8 -5 -15 -12
-15 -7 0 -2 -10 10 -22 17 -18 26 -20 39 -12 23 14 28 34 9 34 -9 0 -16 8 -16
20 0 11 7 20 15 20 18 0 19 12 3 28 -15 15 -29 15 -50 -2z"/>
<path d="M603 604 c-3 -8 2 -23 11 -32 15 -15 17 -15 32 0 21 21 11 48 -16 48
-11 0 -23 -7 -27 -16z"/>
<path d="M660 535 c-11 -14 -10 -19 7 -37 21 -21 43 -18 43 6 0 7 -8 20 -19
30 -16 15 -19 15 -31 1z"/>
<path d="M1687 433 c-12 -11 -7 -33 8 -39 20 -8 45 13 38 32 -5 14 -34 19 -46
7z"/>
<path d="M1840 426 c-27 -33 18 -72 48 -42 13 13 14 20 6 34 -15 23 -38 26
-54 8z"/>
<path d="M1954 425 c-8 -19 3 -35 25 -35 48 0 51 -66 3 -72 -38 -4 -38 -42 0
-46 37 -4 78 36 78 77 0 43 -9 60 -41 76 -36 19 -58 19 -65 0z"/>
<path d="M1743 348 c-6 -7 -10 -33 -9 -58 1 -36 5 -45 19 -45 9 0 17 5 17 10
0 6 35 12 77 15 60 4 78 8 78 20 0 12 -17 16 -78 18 -62 2 -78 6 -73 17 7 20
-18 39 -31 23z"/>
<path d="M1624 315 c-11 -27 4 -45 36 -45 22 0 30 5 30 18 0 37 -54 59 -66 27z"/>
</g>
</svg>
